<?xml version="1.0" encoding="utf-8"?>
<!-- Generator: Adobe Illustrator 23.0.3, SVG Export Plug-In . SVG Version: 6.00 Build 0)  -->
<svg version="1.1" id="Layer_1" xmlns="http://www.w3.org/2000/svg" xmlns:xlink="http://www.w3.org/1999/xlink" x="0px" y="0px"
	 viewBox="0 0 100 84" style="enable-background:new 0 0 100 84;" xml:space="preserve">
<style type="text/css">
	.st0{fill:#FFFFFF;}
</style>
<g>
	<path class="st0" d="M85.8,51.75c7.89-3.24,12.97-8.56,12.96-13.57c-0.01-2.96-1.86-5.4-5.07-6.7c-4.05-1.64-7.87-1.35-11.52,0.15
		C97.77,10.47,92.55,2.99,91.79,2.08c-0.68-0.8-1.87-0.89-2.66-0.22c-0.8,0.67-0.89,1.87-0.22,2.66c0.07,0.08,5.44,9.02-19.62,36.79
		c-1.69,1.7-3.36,3.49-5.02,5.26c-7.63,8.16-14.84,15.86-22.3,14.56c-5.36-0.93-7.63-5.94-7.5-10.48
		c0.17-5.79,4.03-12.06,12.28-13.01c15.5-1.78,25.96-11.84,27.12-20.55c0.75-5.65-2.29-10.28-8.35-12.69
		c-6.26-2.5-15.45-0.77-25.21,4.74c-8.71,4.92-17.15,12.42-23.76,21.11C9,40.2,4.02,51.41,2.16,62.69c-0.17,1.03,0.53,2,1.56,2.17
		c1.03,0.17,2-0.53,2.17-1.56c4.09-24.73,22.1-42.86,36.28-50.86c8.76-4.94,16.76-6.59,21.96-4.52c4.45,1.77,6.53,4.78,6.01,8.68
		c-0.95,7.12-10.32,15.75-23.81,17.3c-4.75,0.54-8.76,2.6-11.59,5.96c-2.49,2.95-3.92,6.74-4.04,10.69
		c-0.22,7.41,4.05,13.17,10.62,14.31c0.78,0.14,1.55,0.2,2.31,0.2c8.51,0,16.03-8.11,23.39-15.9c13.01-13.78,18.29-17,25.25-14.18
		c1.8,0.73,2.71,1.81,2.71,3.21c0.01,2.75-3.31,7.07-10.62,10.07c-5.03,2.06-8.11,5.5-8.23,9.2c-0.1,2.99,1.69,5.62,4.91,7.2
		c1.18,0.58,2.36,0.8,3.47,0.8c3.47,0,6.25-2.17,6.4-2.29c0.81-0.65,0.95-1.83,0.31-2.64c-0.64-0.82-1.83-0.96-2.65-0.32
		c-0.03,0.02-3.14,2.4-5.87,1.06c-1.85-0.91-2.85-2.22-2.8-3.68C79.99,55.44,82.24,53.21,85.8,51.75z"/>
	<g>
		<path class="st0" d="M13.18,83.08h-1.6l-1.62-4.36c-0.2-0.54-0.47-0.9-0.82-1.09c-0.35-0.18-0.84-0.28-1.48-0.28H4.38v5.72H2.89
			v-13.1H8.1c1.41,0,2.49,0.31,3.25,0.94c0.75,0.63,1.13,1.53,1.13,2.71c0,0.86-0.22,1.58-0.67,2.16c-0.45,0.58-1.1,1-1.94,1.24
			c0.38,0.06,0.71,0.22,0.98,0.49c0.27,0.26,0.5,0.64,0.68,1.13L13.18,83.08z M7.97,76.11c2.01,0,3.02-0.82,3.02-2.47
			c0-0.81-0.25-1.41-0.74-1.81c-0.49-0.4-1.25-0.6-2.28-0.6H4.38v4.88H7.97z"/>
		<path class="st0" d="M15.31,69.9h1.82v1.69h-1.82V69.9z M15.46,83.08v-9.26h1.49v9.26H15.46z"/>
		<path class="st0" d="M21.38,82.62c-0.67-0.39-1.18-0.95-1.55-1.67c-0.36-0.72-0.54-1.55-0.54-2.51c0-0.96,0.18-1.8,0.55-2.53
			c0.37-0.73,0.89-1.3,1.57-1.7c0.68-0.4,1.48-0.61,2.38-0.61c0.63,0,1.23,0.11,1.81,0.32c0.58,0.21,1.06,0.51,1.44,0.89l-0.5,1.1
			c-0.47-0.37-0.92-0.64-1.35-0.81c-0.44-0.17-0.88-0.26-1.33-0.26c-0.95,0-1.69,0.32-2.23,0.95c-0.54,0.63-0.81,1.51-0.81,2.64
			c0,1.12,0.27,1.98,0.8,2.6c0.53,0.62,1.28,0.93,2.24,0.93c0.45,0,0.9-0.09,1.33-0.26c0.44-0.17,0.89-0.44,1.35-0.81l0.5,1.1
			c-0.39,0.37-0.89,0.66-1.48,0.87c-0.6,0.21-1.21,0.32-1.85,0.32C22.83,83.21,22.05,83.02,21.38,82.62z"/>
		<path class="st0" d="M37.14,83.08h-1.95l-4.75-4.45v4.45h-1.49V69.54h1.49v8.54l4.36-4.23h1.9l-4.64,4.44L37.14,83.08z"/>
		<path class="st0" d="M52.77,69.98h1.51v13.1h-1.51v-6.02h-7.86v6.02h-1.49v-13.1h1.49v5.82h7.86V69.98z"/>
		<path class="st0" d="M58.86,82.62c-0.66-0.39-1.18-0.95-1.54-1.67c-0.36-0.72-0.54-1.57-0.54-2.54c0-0.97,0.18-1.82,0.54-2.54
			c0.36-0.72,0.87-1.28,1.54-1.67c0.66-0.39,1.43-0.59,2.3-0.59c0.87,0,1.64,0.2,2.3,0.59c0.66,0.39,1.17,0.95,1.54,1.67
			c0.36,0.72,0.54,1.57,0.54,2.54c0,0.97-0.18,1.82-0.54,2.54c-0.36,0.72-0.87,1.28-1.54,1.67c-0.66,0.39-1.43,0.59-2.3,0.59
			C60.29,83.21,59.52,83.02,58.86,82.62z M63.28,81.07c0.49-0.61,0.74-1.49,0.74-2.66c0-1.13-0.25-2-0.75-2.62
			c-0.5-0.62-1.2-0.93-2.1-0.93c-0.91,0-1.61,0.31-2.12,0.93c-0.5,0.62-0.75,1.49-0.75,2.62c0,1.17,0.25,2.05,0.74,2.66
			c0.5,0.61,1.21,0.91,2.13,0.91S62.79,81.67,63.28,81.07z"/>
		<path class="st0" d="M69.4,82.62c-0.67-0.39-1.18-0.95-1.55-1.67c-0.36-0.72-0.54-1.55-0.54-2.51c0-0.96,0.18-1.8,0.55-2.53
			c0.37-0.73,0.89-1.3,1.57-1.7c0.68-0.4,1.48-0.61,2.38-0.61c0.63,0,1.23,0.11,1.81,0.32c0.58,0.21,1.06,0.51,1.44,0.89l-0.5,1.1
			c-0.47-0.37-0.92-0.64-1.35-0.81c-0.44-0.17-0.88-0.26-1.33-0.26c-0.95,0-1.69,0.32-2.23,0.95c-0.54,0.63-0.81,1.51-0.81,2.64
			c0,1.12,0.27,1.98,0.8,2.6c0.53,0.62,1.28,0.93,2.24,0.93c0.45,0,0.9-0.09,1.33-0.26c0.43-0.17,0.89-0.44,1.35-0.81l0.5,1.1
			c-0.39,0.37-0.89,0.66-1.48,0.87c-0.6,0.21-1.21,0.32-1.85,0.32C70.85,83.21,70.07,83.02,69.4,82.62z"/>
		<path class="st0" d="M84.72,73.82v9.26h-1.45v-1.6c-0.29,0.56-0.71,0.99-1.23,1.29c-0.53,0.29-1.12,0.44-1.79,0.44
			c-1.09,0-1.92-0.31-2.48-0.92c-0.56-0.61-0.85-1.52-0.85-2.72v-5.74h1.49v5.71c0,0.83,0.17,1.45,0.52,1.84s0.86,0.59,1.56,0.59
			c0.82,0,1.48-0.27,1.99-0.8c0.5-0.53,0.75-1.24,0.75-2.11v-5.23H84.72z"/>
		<path class="st0" d="M89.58,75v5.06c0,0.69,0.14,1.17,0.42,1.44c0.28,0.28,0.68,0.41,1.2,0.41c0.34,0,0.67-0.06,0.99-0.17v1.27
			c-0.38,0.12-0.81,0.18-1.29,0.18c-0.88,0-1.57-0.25-2.07-0.75c-0.5-0.5-0.75-1.23-0.75-2.2V75h-1.8v-1.18h1.8v-2.37l1.49-0.53
			v2.91h2.65V75H89.58z"/>
		<path class="st0" d="M96.08,75v5.06c0,0.69,0.14,1.17,0.42,1.44c0.28,0.28,0.68,0.41,1.2,0.41c0.34,0,0.67-0.06,0.99-0.17v1.27
			c-0.38,0.12-0.81,0.18-1.29,0.18c-0.88,0-1.57-0.25-2.07-0.75c-0.5-0.5-0.75-1.23-0.75-2.2V75h-1.8v-1.18h1.8v-2.37l1.49-0.53
			v2.91h2.65V75H96.08z"/>
	</g>
</g>
</svg>
